# xmcd CD database file
#
# Track frame offsets:
#	150
#	21712
#	29922
#	52324
#	64601
#	78987
#	105374
#	118517
#	137988
#
# Disc length: 2099 seconds
#
# Revision: 0
# Processed by: cddbd v1.5.2PL0 Copyright (c) Steve Scherf et al.
# Submitted via: ACXtractor (MTCDDB.DLL V2003.12.21)
#
DISCID=83083109
DTITLE=Sean Michel - I Know I've Been Converted
DYEAR=2009
DGENRE=Rock and Roll
TTITLE0=I Know I've Been Converted
TTITLE1=God's Gonna Cut Ya Down
TTITLE2=Victory In Jesus
TTITLE3=Nothin' But The Blood
TTITLE4=Arkansas
TTITLE5=Amazing Grace
TTITLE6=Never Be The Same
TTITLE7=Were You There
TTITLE8=I Know I've Been Converted (stripped)
EXTD=ID3G:  78 YEAR: 2009
EXTT0=
EXTT1=
EXTT2=
EXTT3=
EXTT4=
EXTT5=
EXTT6=
EXTT7=
EXTT8=
PLAYORDER=
